<svg width="32" height="36" viewBox="0 0 32 36" fill="none" xmlns="http://www.w3.org/2000/svg">
<path d="M31.1047 0.0744134C30.7552 0.0301676 30.4077 0.00804469 30.0707 0.00603352H30.0519C27.6489 0.00603352 25.3374 0.905028 23.7105 2.47575C22.2374 3.89765 21.424 5.77609 21.424 7.76514V25.3991C21.424 28.432 19.0813 30.8132 16.077 30.8514C16.0208 30.8413 15.9646 30.8413 15.9105 30.8514C12.9146 30.8031 10.5823 28.4259 10.5823 25.3991V7.75911C10.5823 3.40894 6.79362 0 1.95638 0C1.63389 0 1.33221 0.0281564 0.922349 0.0784358C0.685168 0.106592 0.506242 0.303687 0.506242 0.534972L0.5 27.7381C0.568658 32.217 4.3698 35.8592 8.97403 35.8592C11.8285 35.8592 14.4521 34.4755 16 32.1989C17.5479 34.4735 20.1715 35.8592 23.026 35.8592C27.6323 35.8592 31.4313 32.215 31.4938 27.7321L31.5208 0.53095C31.5208 0.299665 31.344 0.104581 31.1068 0.0744134H31.1047ZM13.5221 32.6132C13.4971 32.6293 12.8792 33.0154 11.3937 33.0154H11.35C10.3742 33.0114 9.4151 32.8284 8.50174 32.4704C7.88382 32.229 6.73745 31.6297 5.98221 30.3144C5.36221 29.2344 5.04805 27.895 5.04805 26.3303V7.8657C5.04805 5.76804 4.81087 4.89922 4.27825 3.7448C3.87879 2.87799 3.13812 2.24648 2.73242 1.94682C2.68664 1.91263 2.67208 1.85229 2.69913 1.80201C2.72617 1.75173 2.78651 1.72961 2.84268 1.7457C2.90302 1.76581 4.31154 2.23039 5.18537 3.69251C5.8657 4.83285 6.2402 6.31307 6.2402 7.86369V26.3323C6.2402 27.6194 6.49611 28.7236 6.99752 29.6105C7.43235 30.3768 8.0898 31.0002 8.9553 31.4608C10.0788 32.0601 11.8514 32.4302 13.4534 32.402H13.4555C13.5075 32.402 13.5533 32.4342 13.5699 32.4825C13.5845 32.5307 13.5658 32.585 13.5221 32.6132ZM29.4798 1.94682C29.0741 2.24648 28.3334 2.87799 27.934 3.7448C27.4013 4.89922 27.1642 5.76804 27.1642 7.8657V26.3343C27.1642 27.897 26.85 29.2384 26.23 30.3184C25.4748 31.6337 24.3284 32.2331 23.7105 32.4744C22.7971 32.8304 21.838 33.0134 20.8622 33.0194H20.8185C19.333 33.0194 18.7151 32.6333 18.6901 32.6172C18.6464 32.5891 18.6277 32.5368 18.6423 32.4865C18.6568 32.4382 18.7047 32.406 18.7567 32.406H18.7588C20.367 32.4362 22.1334 32.0641 23.2569 31.4648C24.1224 31.0042 24.7819 30.3808 25.2147 29.6145C25.7182 28.7256 25.972 27.6235 25.972 26.3363V7.8657C25.972 6.31508 26.3465 4.83486 27.0268 3.69453C27.9007 2.23039 29.3092 1.76581 29.3695 1.74771C29.4257 1.73162 29.486 1.75374 29.5131 1.80402C29.5401 1.8543 29.5256 1.91464 29.4798 1.94883V1.94682Z" fill="white"/>
</svg>
